<?xml version="1.0" standalone="no"?><!DOCTYPE svg PUBLIC "-//W3C//DTD SVG 1.1//EN" "http://www.w3.org/Graphics/SVG/1.1/DTD/svg11.dtd"><svg t="1621691968050" class="icon" viewBox="0 0 1024 1024" version="1.1" xmlns="http://www.w3.org/2000/svg" p-id="3114" xmlns:xlink="http://www.w3.org/1999/xlink" width="256" height="256"><defs><style type="text/css"></style></defs><path d="M483.555556 540.444444m-483.555556 0a483.555556 483.555556 0 1 0 967.111111 0 483.555556 483.555556 0 1 0-967.111111 0Z" fill="#FFCC4D" p-id="3115"></path><path d="M455.082667 739.555556a71.111111 56.888889 90 1 0 113.777777 0 71.111111 56.888889 90 1 0-113.777777 0Z" fill="#664500" p-id="3116"></path><path d="M230.712889 608.227556a28.444444 28.444444 0 0 1-24.035556-43.605334c26.055111-41.329778 105.272889-112.014222 218.737778-84.252444a28.444444 28.444444 0 0 1-13.539555 55.239111c-102.513778-25.088-156.501333 58.481778-157.041778 59.335111a28.472889 28.472889 0 0 1-24.120889 13.283556z m340.565333-106.439112a28.444444 28.444444 0 0 1-18.033778-50.460444c90.339556-74.069333 192.341333-44.430222 233.671112-18.375111a28.444444 28.444444 0 0 1-30.264889 48.184889c-3.925333-2.389333-86.812444-51.854222-167.367111 14.193778a28.216889 28.216889 0 0 1-18.005334 6.456888z" fill="#664500" p-id="3117"></path><path d="M379.619556 889.543111a21.333333 21.333333 0 0 1-20.536889-27.136c12.430222-43.804444 7.338667-86.158222-13.937778-116.224-14.136889-19.968-34.275556-32.170667-55.267556-33.507555-11.776-0.711111-20.707556-10.865778-19.968-22.613334s10.837333-21.361778 22.613334-19.939555c33.934222 2.104889 65.792 20.849778 87.409777 51.399111 28.757333 40.647111 36.124444 96.227556 20.167112 152.490666a21.304889 21.304889 0 0 1-20.48 15.530667z m313.941333-87.068444a21.162667 21.162667 0 0 1-11.719111-3.527111c-33.194667-21.902222-51.768889-60.216889-50.972445-105.102223 0.824889-46.506667 23.011556-89.685333 56.433778-110.051555a21.276444 21.276444 0 0 1 29.297778 7.139555 21.276444 21.276444 0 0 1-7.139556 29.297778c-20.906667 12.743111-35.384889 42.638222-35.953777 74.353778-0.568889 30.008889 11.064889 55.068444 31.800888 68.750222a21.333333 21.333333 0 0 1-11.747555 39.139556z" fill="#E2A62D" p-id="3118"></path><path d="M488.647111 77.368889a9.244444 9.244444 0 0 0-5.376-2.588445S30.321778-11.207111 10.723556 6.087111C-8.846222 23.409778 21.048889 483.498667 21.048889 483.498667c0.142222 2.304 0.654222 4.266667 1.905778 5.660444 17.180444 19.456 135.338667-57.002667 263.936-170.695111 128.625778-113.720889 218.936889-221.639111 201.756444-241.095111z" fill="#DD2E44" p-id="3119"></path><path d="M9.927111 7.708444a13.824 13.824 0 0 0-1.080889 3.498667C13.368889 50.204444 57.059556 371.086222 84.280889 471.381333c40.846222-22.840889 82.346667-53.873778 131.100444-92.529777C173.966222 303.047111 32.938667 4.152889 9.927111 7.708444z" fill="#EA596E" p-id="3120"></path><path d="M850.545778 831.402667l-300.743111-37.063111c-32.142222-2.901333-88.661333-3.185778-85.76-54.101334 2.645333-46.165333 58.026667-39.054222 98.958222-32.995555l302.592 50.460444-15.047111 73.699556z" fill="#3B88C3" p-id="3121"></path><path d="M865.564444 757.731556l-120.092444-20.593778c-14.051556-2.531556-26.567111 18.403556-27.192889 40.561778-0.711111 24.632889 6.456889 37.091556 20.650667 39.992888l117.873778 14.563556 8.760888-74.524444z" fill="#88C9F9" p-id="3122"></path><path d="M993.223111 749.255111l-74.581333 68.579556-133.319111-144.981334 74.581333-68.579555a95.914667 95.914667 0 0 1 135.139556 5.660444l3.84 4.181334a95.943111 95.943111 0 0 1-5.660445 135.139555z" fill="#3B88C3" p-id="3123"></path><path d="M793.943807 798.712066a98.474667 78.791111 47.403 1 0 116.001399-106.657545 98.474667 78.791111 47.403 1 0-116.001399 106.657545Z" fill="#88C9F9" p-id="3124"></path><path d="M822.944157 772.04768a59.079111 39.395556 47.403 1 0 58.000699-53.328773 59.079111 39.395556 47.403 1 0-58.000699 53.328773Z" fill="#226699" p-id="3125"></path><path d="M71.111111 952.888889m-42.666667 0a42.666667 42.666667 0 1 0 85.333334 0 42.666667 42.666667 0 1 0-85.333334 0Z" fill="#55ACEE" p-id="3126"></path><path d="M824.888889 56.888889m-56.888889 0a56.888889 56.888889 0 1 0 113.777778 0 56.888889 56.888889 0 1 0-113.777778 0Z" fill="#55ACEE" p-id="3127"></path><path d="M138.353778 831.886222L71.850667 672.142222 11.719111 844.088889zM739.555556 142.222222l-113.777778 28.444445 28.444444-113.777778z" fill="#EA596E" p-id="3128"></path><path d="M910.193778 369.777778L1024 227.527111 938.666667 170.666667z" fill="#77B255" p-id="3129"></path></svg>